<svg id="Layer_1" data-name="Layer 1" xmlns="http://www.w3.org/2000/svg" viewBox="0 0 120 120"><defs><style>.cls-1{fill:#04b14e;}.cls-2{fill:#fff;}</style></defs><g id="Group_2396" data-name="Group 2396"><circle id="Ellipse_119" data-name="Ellipse 119" class="cls-1" cx="60" cy="60" r="60"/><g id="calculator"><path id="Path_1668" data-name="Path 1668" class="cls-2" d="M86.8,27.48H33.2a5.72,5.72,0,0,0-5.72,5.72V86.8a5.73,5.73,0,0,0,5.72,5.72H86.8a5.73,5.73,0,0,0,5.72-5.72V33.2A5.73,5.73,0,0,0,86.8,27.48Zm1.91,5.72V58.09H61.9V31.29H86.8A1.92,1.92,0,0,1,88.71,33.2ZM33.2,31.29H58.09v26.8H31.29V33.2a1.92,1.92,0,0,1,1.91-1.91Zm-1.91,55.5V61.9h26.8V88.71H33.2a1.92,1.92,0,0,1-1.91-1.91Zm55.5,1.91H61.9V61.9H88.71V86.8a1.92,1.92,0,0,1-1.91,1.91Z"/><path id="Path_1669" data-name="Path 1669" class="cls-2" d="M39,46.66h3.81v3.81a1.91,1.91,0,1,0,3.81,0V46.66h3.81a1.91,1.91,0,0,0,0-3.81H46.66V39a1.91,1.91,0,1,0-3.81,0h0v3.81H39a1.91,1.91,0,1,0,0,3.81Z"/><path id="Path_1670" data-name="Path 1670" class="cls-2" d="M47.45,75.24l2.69-2.69a1.91,1.91,0,1,0-2.69-2.7l-2.69,2.7-2.7-2.7a1.91,1.91,0,1,0-2.69,2.7l2.69,2.69-2.69,2.7a1.9,1.9,0,0,0,2.69,2.69l2.7-2.69,2.69,2.69a1.9,1.9,0,0,0,2.69-2.69Z"/><path id="Path_1671" data-name="Path 1671" class="cls-2" d="M81,69.53H69.52a1.91,1.91,0,0,0,0,3.81H81a1.91,1.91,0,0,0,0-3.81Z"/><path id="Path_1672" data-name="Path 1672" class="cls-2" d="M81,77.15H69.52a1.91,1.91,0,0,0,0,3.81H81a1.91,1.91,0,0,0,0-3.81Z"/><path id="Path_1673" data-name="Path 1673" class="cls-2" d="M69.53,46.66H81a1.91,1.91,0,0,0,0-3.81H69.53a1.91,1.91,0,1,0,0,3.81Z"/></g></g></svg>