<svg id="Layer_1" data-name="Layer 1" xmlns="http://www.w3.org/2000/svg" viewBox="0 0 120 120"><defs><style>.cls-1{fill:#04b14e;}.cls-2{fill:#fff;}</style></defs><circle id="Ellipse_121" data-name="Ellipse 121" class="cls-1" cx="60" cy="60" r="60"/><g id="rise"><path id="Path_1660" data-name="Path 1660" class="cls-2" d="M81.12,44.74H66.77a1.41,1.41,0,0,0-1.42,1.41V49a1.41,1.41,0,0,0,1.42,1.41h6.06L60.42,62.83l-5.26-5.26a2.84,2.84,0,0,0-4,0L37.88,70.83a1.42,1.42,0,0,0,0,2h0l2,2a1.42,1.42,0,0,0,2,0L53.15,63.6l5.26,5.26a2.85,2.85,0,0,0,4,0h0L76.85,54.44v6.07a1.42,1.42,0,0,0,1.42,1.41h2.85a1.42,1.42,0,0,0,1.42-1.41V46.15a1.42,1.42,0,0,0-1.42-1.41Z"/></g></svg>