<svg id="Layer_1" data-name="Layer 1" xmlns="http://www.w3.org/2000/svg" viewBox="0 0 120 120"><defs><style>.cls-1{fill:#04b14e;}.cls-2{fill:#fff;}</style></defs><g id="Group_2367" data-name="Group 2367"><circle id="Ellipse_120" data-name="Ellipse 120" class="cls-1" cx="60" cy="60" r="60"/><g id="exam"><g id="Group_2339" data-name="Group 2339"><g id="Group_2338" data-name="Group 2338"><path id="Path_1661" data-name="Path 1661" class="cls-2" d="M80.17,33.78h-6.4a6.06,6.06,0,0,0-5.7-4H65.7a6.05,6.05,0,0,0-11.41,0H51.93a6.06,6.06,0,0,0-5.7,4h-6.4a6.06,6.06,0,0,0-6,6v48.4a6.06,6.06,0,0,0,6,6H80.17a6.06,6.06,0,0,0,6-6V39.83A6.05,6.05,0,0,0,80.17,33.78Zm-30.25,2a2,2,0,0,1,2-2h4a2,2,0,0,0,2-2,2,2,0,0,1,4,0,2,2,0,0,0,2,2h4a2,2,0,0,1,2,2h0v2H49.92ZM82.18,88.23a2,2,0,0,1-2,2H39.83a2,2,0,0,1-2-2V39.83a2,2,0,0,1,2-2h6.05v2a2,2,0,0,0,2,2H72.1a2,2,0,0,0,2-2v-2h6a2,2,0,0,1,2,2v48.4Z"/></g></g><g id="Group_2341" data-name="Group 2341"><g id="Group_2340" data-name="Group 2340"><path id="Path_1662" data-name="Path 1662" class="cls-2" d="M54,49.92H45.89a2,2,0,0,0,0,4H54a2,2,0,1,0,.12-4Z"/></g></g><g id="Group_2343" data-name="Group 2343"><g id="Group_2342" data-name="Group 2342"><path id="Path_1663" data-name="Path 1663" class="cls-2" d="M54,64H45.89a2,2,0,0,0,0,4H54a2,2,0,0,0,0-4Z"/></g></g><g id="Group_2345" data-name="Group 2345"><g id="Group_2344" data-name="Group 2344"><path id="Path_1664" data-name="Path 1664" class="cls-2" d="M54,78.15H45.89a2,2,0,1,0-.12,4H54a2,2,0,1,0,.12-4Z"/></g></g><g id="Group_2347" data-name="Group 2347"><g id="Group_2346" data-name="Group 2346"><path id="Path_1665" data-name="Path 1665" class="cls-2" d="M75.54,48.49a2,2,0,0,0-2.85,0h0l-4.62,4.63-2.61-2.61a2,2,0,0,0-2.85,2.85l4,4a2,2,0,0,0,2.85,0l6.05-6A2,2,0,0,0,75.54,48.49Z"/></g></g><g id="Group_2349" data-name="Group 2349"><g id="Group_2348" data-name="Group 2348"><path id="Path_1666" data-name="Path 1666" class="cls-2" d="M75.54,60.59a2,2,0,0,0-2.85,0h0l-4.62,4.62-2.61-2.6a2,2,0,0,0-2.85,2.85l4,4a2,2,0,0,0,2.85,0l6.05-6A2,2,0,0,0,75.54,60.59Z"/></g></g><g id="Group_2351" data-name="Group 2351"><g id="Group_2350" data-name="Group 2350"><path id="Path_1667" data-name="Path 1667" class="cls-2" d="M70.92,80.17l2.61-2.61a2,2,0,0,0-2.86-2.85l-2.6,2.61-2.61-2.61a2,2,0,0,0-2.85,2.85l2.6,2.61-2.6,2.61a2,2,0,0,0,2.85,2.85L68.07,83l2.6,2.61a2,2,0,0,0,2.86-2.85Z"/></g></g></g></g></svg>