<svg id="Layer_1" data-name="Layer 1" xmlns="http://www.w3.org/2000/svg" viewBox="0 0 120 120"><defs><style>.cls-1{fill:#04b14e;}.cls-2{fill:#fff;}</style></defs><g id="Group_2403" data-name="Group 2403"><circle id="Ellipse_123" data-name="Ellipse 123" class="cls-1" cx="59.87" cy="60.13" r="59.87"/><g id="like"><g id="Group_2353" data-name="Group 2353"><g id="Group_2352" data-name="Group 2352"><path id="Path_1674" data-name="Path 1674" class="cls-2" d="M88.4,65.64a6,6,0,0,0-4.48-10H72.25A39,39,0,0,0,73.9,45.46v-2a8,8,0,0,0-8-8h-2a2,2,0,0,0-2,1.52l-1.09,4.36c-1.53,6.12-6.39,12.87-11.41,14.1a6,6,0,0,0-5.6-3.81h-12a2,2,0,0,0-2,2V89.69a2,2,0,0,0,2,2h12a6,6,0,0,0,5.43-3.43l6.88,2.29a22,22,0,0,0,7,1.14h16.8a6,6,0,0,0,5.59-8.24,6,6,0,0,0,4.22-7.38,6.14,6.14,0,0,0-1.32-2.43,6,6,0,0,0,0-8Zm-42.56,20a2,2,0,0,1-2,2h-10V55.62h10a2,2,0,0,1,2,2Zm34.07-18h4a2,2,0,1,1,0,4h-4a2,2,0,0,0,0,4h4a2,2,0,1,1,0,4h-4a2,2,0,0,0,0,4,2,2,0,1,1,0,4H63.12a17.89,17.89,0,0,1-5.71-.94l-7.57-2.52V59.44a16.14,16.14,0,0,0,9-5.85A29.26,29.26,0,0,0,64.73,42.3l.71-2.85h.44a4,4,0,0,1,4,4v2A31.65,31.65,0,0,1,68,55.61H63.88a2,2,0,1,0,0,4h20a2,2,0,1,1,0,4h-4a2,2,0,0,0,0,4Z"/></g></g><g id="Group_2355" data-name="Group 2355"><g id="Group_2354" data-name="Group 2354"><circle id="Ellipse_124" data-name="Ellipse 124" class="cls-2" cx="39.75" cy="81.66" r="2.16"/></g></g><g id="Group_2357" data-name="Group 2357"><g id="Group_2356" data-name="Group 2356"><path id="Path_1675" data-name="Path 1675" class="cls-2" d="M67.88,23.28a2,2,0,0,0-2,2v4.14a2,2,0,1,0,4,0V25.28a2,2,0,0,0-2-2Z"/></g></g><g id="Group_2359" data-name="Group 2359"><g id="Group_2358" data-name="Group 2358"><path id="Path_1676" data-name="Path 1676" class="cls-2" d="M59.38,32.12l-2.83-2.84a2,2,0,1,0-2.84,2.84L56.55,35a2,2,0,0,0,2.83-2.83Z"/></g></g><g id="Group_2361" data-name="Group 2361"><g id="Group_2360" data-name="Group 2360"><path id="Path_1677" data-name="Path 1677" class="cls-2" d="M82.06,29.28a2,2,0,0,0-2.83,0h0l-2.83,2.84A2,2,0,0,0,79.22,35l2.84-2.83a2,2,0,0,0,0-2.84Z"/></g></g></g></g></svg>