<svg id="Layer_1" data-name="Layer 1" xmlns="http://www.w3.org/2000/svg" viewBox="0 0 120 120"><defs><style>.cls-1{fill:#04b14e;}.cls-2{fill:#fff;}</style></defs><g id="Group_2393" data-name="Group 2393"><path id="Path_1680" data-name="Path 1680" class="cls-1" d="M60,0A60,60,0,1,1,0,60,60,60,0,0,1,60,0Z"/><g id="magnifying-glass"><g id="Group_2363" data-name="Group 2363"><g id="Group_2362" data-name="Group 2362"><path id="Path_1678" data-name="Path 1678" class="cls-2" d="M87.32,79.51,77.41,69.6h0l-3.54-3.55a3.08,3.08,0,0,0-4.34,0l-.44.44L67.59,65a20.29,20.29,0,1,0-2.6,2.6l1.5,1.5-.43.44a3.07,3.07,0,0,0,0,4.34L79.51,87.32a3.07,3.07,0,0,0,4.34,0h0l3.47-3.47A3.07,3.07,0,0,0,87.32,79.51ZM52,68.61A16.58,16.58,0,1,1,68.61,52,16.57,16.57,0,0,1,52,68.61ZM69.1,71.7l2.6-2.61,1.81,1.81L70.9,73.5ZM81.68,84.28,73.5,76.1l2.61-2.6,8.17,8.17Z"/></g></g><g id="Group_2365" data-name="Group 2365"><g id="Group_2364" data-name="Group 2364"><path id="Path_1679" data-name="Path 1679" class="cls-2" d="M52,39.15a1.84,1.84,0,1,0,0,3.68A9.22,9.22,0,0,1,61.24,52a1.85,1.85,0,0,0,3.69,0A12.91,12.91,0,0,0,52,39.15Z"/></g></g></g></g></svg>